<?xml version="1.0" standalone="no"?>
<!DOCTYPE svg PUBLIC "-//W3C//DTD SVG 1.0//EN" "http://www.w3.org/TR/2001/REC-SVG-20010904/DTD/svg10.dtd">
<svg xmlns="http://www.w3.org/2000/svg" xmlns:xlink="http://www.w3.org/1999/xlink" id="body_1" width="106" height="150">

<g transform="matrix(0.17806149 0 0 0.17806149 -0 0.0450153)">
	<g>
        <path d="M192.7 371.9L198.4 377.1L205.5 380L208.1 382.3L208.1 391.2L203.9 389.4L200.4 392.8L197.9 391.5L189.8 395.4L184.9 399.5L184.9 402.2L192.4 402.2L192.7 406.6L196.5 414.7L194.3 416.8L192.7 421.1L195 424.8L194.3 428.8L194.8 437.6L191.9 440L193 446L191.7 449.6L193.5 452.8L193.5 459.3L191.4 459.3L186.4 447.8L176 440.8L162.4 431.9L154.6 428.5L142.1 428.8L135.8 430.1L133.5 426.9L133.5 408.2L130.3 406.1L135.8 390.2L141 387L149.1 373.5L159.8 371.9L160.9 366.7L164.3 359.6L169.2 361.5L170.3 366.2L173.4 368.5L181.5 367.7L183.8 372.4L189 374.8L192.7 371.9" stroke="#000000" stroke-width="1" fill="none" />
	</g>
	<g>
        <path d="M193.5 452.8L191.7 449.6L193 446L191.9 440L194.8 437.6L194.3 428.8L195 424.8L192.7 421.1L194.3 416.8L196.5 414.7L192.7 406.6L192.4 402.2L184.9 402.2L184.9 399.5L189.8 395.4L197.9 391.5L200.4 392.8L203.9 389.4L208.1 391.2L208.1 382.3L205.5 380L209.7 377.1L218.3 377.1L222.4 371.9L220.6 368.8L224.8 364.3L231.8 364.3L229.7 367.2L230.8 371.1L233.7 369.8L236.3 367.2L239.9 366.9L243.3 372.7L243.3 377.1L247.2 380.5L247.2 384.9L251.1 388.1L252.7 392L252.7 395.9L248.3 400.8L249.3 403.7L252.7 404.2L260 400.1L264.7 398.2L268.6 397.2L271.2 399.3L273.8 403.5L273.8 410.2L277 413.6L279.6 417.8L279.6 420.9L282.4 423.3L286.3 424.6L289 425.9L289 430.3L286.6 434.5L281.7 437.1L277.7 434.2L276.4 438.2L271.5 442.1L265.7 445.7L261.6 447.3L258.4 449.6L255.6 452.2L253 446.8L244.9 451.5L243 448.6L236.9 453.3L232.1 449.1L230 452.5L220.9 453L218.8 457.2L211.7 456.4L205.5 456.4L201.3 452.5L197.4 453L193.5 452.8" stroke="#000000" stroke-width="1" fill="none" />
	</g>
	<g>
        <path d="M289 430.3L289 425.9L286.3 424.6L282.4 423.3L279.6 420.9L279.6 417.8L277 413.6L273.8 410.2L273.8 403.5L271.2 399.3L268.6 397.2L264.7 398.2L260 400.1L252.7 404.2L249.3 403.7L248.3 400.8L252.7 395.9L252.7 392L251.1 388.1L247.2 384.9L247.2 380.5L243.3 377.1L243.3 372.7L239.9 366.9L242.5 365.6L243 358.1L239.9 353.4L239.9 346.3L249.8 340.1L250.9 336.7L261.6 329.9L262.6 325.9L278.8 330.2L278.8 333L289 338.2L297.2 343.7L301.2 349.5L311.4 353.6L314.3 356.8L314.3 359.6L317.7 367.5L311.4 375.5L312.2 381.8L310.3 391.5L315.3 394.1L313.2 398L316.3 399.5L317.7 400.1L314.3 402.9L320 410.8L320 413.6L325.5 418.6L321.6 419.6L317.7 424.3L313.5 425.1L312.2 432.7L309 435L305.1 429.5L300.4 429.3L297.6 432.7L292.9 432.7L289 430.3" stroke="#000000" stroke-width="1" fill="none" />
	</g>
	<g>
        <path d="M193.5 452.8L193.5 459.3L188 464L190.7 471L195.6 472.6L199.7 478.3L199.7 488L203.7 493.5L207 496.1L210.2 503.6L215.9 503.6L223.5 510.9L230.3 512.2L233.7 516.3L243.6 512.2L243.6 505.5L248.3 506.2L249.8 502.1L253 496.1L250.1 495.3L248.8 489L243.6 480.4L239.9 480.2L242.3 475.2L245.1 473.6L248.8 471.8L251.7 467.6L253 464.2L250.1 460.8L254.5 455.6L259.2 459.3L264.2 455.4L261.6 447.3L258.4 449.6L255.6 452.2L253 446.8L244.9 451.5L243 448.6L236.9 453.3L232.1 449.1L230 452.5L220.9 453L218.8 457.2L211.7 456.4L205.5 456.4L201.3 452.5L197.4 453L193.5 452.8" stroke="#000000" stroke-width="1" fill="none" />
	</g>
	<g>
        <path d="M253 496.1L250.1 495.30002L248.8 489.00003L243.6 480.40002L239.90001 480.10004L242.20001 475.10004L245.1 473.50003L248.8 471.70004L251.7 467.50003L253 464.10004L250.1 460.70004L254.5 455.50003L259.2 459.20004L264.2 455.30005L261.6 447.20004L268.4 444.00003L273 440.80002L276.5 438.1L277.8 434.2L281.69998 437.1L286.69998 434.5L288.99997 430.3L292.89996 432.59998L297.69995 432.59998L300.49994 429.19998L305.19995 429.49997L309.09995 434.99997L310.39993 440.19998L310.39993 446.69998L315.89993 451.09998L320.29993 451.59998L323.39993 455.3L329.89993 457.09998L335.09995 459.19998L338.99994 462.59998L338.99994 466.49997L333.79993 464.89996C 333.79993 464.89996 330.69992 466.69995 329.89993 466.69995C 329.09995 466.69995 320.99994 465.89996 320.99994 465.89996L320.99994 465.89996L316.29993 467.99997L301.19992 467.49997L297.19992 477.19998L291.29993 478.49997L289.49994 481.39996L283.79993 483.99997L277.29993 481.39996L272.29993 482.89996L266.79993 485.19995L264.19992 485.19995L255.89992 490.69995L253 496.1z" stroke="#000000" stroke-width="1" fill="none" />
	</g>
	<g>
        <path d="M375 466.6L375 462.7L378.2 461.6L380.8 459.3L379.7 454.6L383.9 450.9L382.3 442.8L385.5 442.8L386.8 440L389.4 435L391.5 429.3L401.9 435L401.9 429.3L403.2 421.1L409.7 415.7L415.2 412.3L418.1 412.6L417 404.5L421.5 404L420.2 399.8L422.3 394.3L422.3 389.1L422.5 387L425.9 383.9L429.6 385.2L439 387.8L437.7 398.8L440 406.1L444.4 413.6L447.6 417.3L452.3 417.3L458.8 421.7L452.8 428.2L449.4 432.9L447.8 440L446 445.7L442.9 450.4L439 455.6L438.4 459.3L436.1 462.7L433 465L431.4 466.6L429 467.9L423 461.1L418.3 459.3L414.7 461.1L412.3 459.3L406.6 461.4L404 466.6L400.6 470.2L394.3 470.2L389.4 468.7L387 466.3L382.1 466.8L375 466.6" stroke="#000000" stroke-width="1" fill="none" />
	</g>
	<g>
        <path d="M325.5 418.6L320 413.6L320 410.8L314.3 402.9L317.7 400.1L316.3 399.5L313.2 398L315.3 394.1L310.3 391.5L312.2 381.8L311.4 375.5L317.7 367.5L314.3 359.6L314.3 356.8L311.4 353.6L313.2 350.2L317.9 351.8L325.5 352.6L328.9 351.8L331.7 353.1L334.9 352.3L339 348.9L345.3 350L350 350.8L357.6 350.8L365.4 344.8L375 347.9L378.7 344.8L388.6 347.1L394.1 342.2L402.2 343.5L405 343.7L406.1 349.2L410.3 350.8L410.3 357.8L412.6 358.3L412.6 364.3L407.7 371.4L407.1 373.2L404.5 375L404.5 378.9L396.7 381.5L392.8 388.1L388.6 400.3L382.3 405.8L376.6 407.1L373 403.7L368 403.7L365.1 408.2L360.4 409.5L354.2 405.8L347.7 410.8L339 415.7L334.9 422.2L327.3 420.9L325.5 418.6" stroke="#000000" stroke-width="1" fill="none" />
	</g>
	<g>
        <path d="M339 466.6L339 462.7L335.1 459.3L329.9 457.2L323.4 455.4L320.3 451.7L315.8 451.2L310.3 446.8L310.3 440.2L309 435L311.8 432.9L313.5 425.1L317.7 424.3L321.6 419.6L325.5 418.6L327.3 420.9L330.2 421.1L334.9 422.2L339 415.7L347.7 410.8L354.2 405.8L360.4 409.5L365.1 408.2L368 403.7L373 403.7L376.6 407.1L382.3 405.8L388.6 400.3L392.8 388.1L396.7 381.5L404.5 378.9L404.5 375L407.1 373.2L413.1 375.3L416 377.4L422.3 378.4L425.9 383.9L422.5 387L422.3 389.1L422.3 394.3L420.2 399.8L421.5 404L417 404.5L418.1 412.6L415.2 412.3L409.7 415.7L403.2 421.1L401.9 429.3L401.9 435L391.5 429.3L389.4 435L386.8 440L385.5 442.8L382.3 442.8L383.9 450.9L379.7 454.6L380.8 459.3L378.2 461.6L375 462.7L375 466.6L368.5 466.6L364.3 466.6L357.8 470.2L345.8 466.3L341.7 468.2L339 466.6" stroke="#000000" stroke-width="1" fill="none" />
	</g>
</g>
</svg>